<svg preserveAspectRatio="none" width="100%" height="100%" overflow="visible" style="display: block;" viewBox="0 0 18 18" fill="none" xmlns="http://www.w3.org/2000/svg">
<g id="Icon">
<path id="Vector" d="M8.74476 13.1171V3.64365" stroke="var(--stroke-0, #00A82D)" stroke-width="1.45746" stroke-linecap="round" stroke-linejoin="round"/>
<path id="Vector_2" d="M10.9309 9.47349C10.3005 9.28918 9.74665 8.90554 9.35252 8.38003C8.95839 7.85452 8.74515 7.21545 8.74476 6.55857C8.74436 7.21545 8.53113 7.85452 8.137 8.38003C7.74287 8.90554 7.18907 9.28918 6.55857 9.47349" stroke="var(--stroke-0, #00A82D)" stroke-width="1.45746" stroke-linecap="round" stroke-linejoin="round"/>
<path id="Vector_3" d="M12.8242 4.73674C12.9919 4.44633 13.0905 4.12124 13.1125 3.78662C13.1344 3.45199 13.0791 3.11681 12.9507 2.80699C12.8224 2.49717 12.6245 2.22102 12.3724 1.99991C12.1203 1.7788 11.8207 1.61865 11.4968 1.53185C11.1729 1.44506 10.8333 1.43395 10.5044 1.49937C10.1755 1.5648 9.86609 1.70501 9.60004 1.90916C9.334 2.11331 9.11849 2.37592 8.97018 2.67669C8.82187 2.97745 8.74474 3.3083 8.74476 3.64365C8.74477 3.3083 8.66764 2.97745 8.51933 2.67669C8.37102 2.37592 8.15551 2.11331 7.88947 1.90916C7.62343 1.70501 7.31399 1.5648 6.98509 1.49937C6.65619 1.43395 6.31665 1.44506 5.99273 1.53185C5.66882 1.61865 5.36921 1.7788 5.11709 1.99991C4.86497 2.22102 4.66709 2.49717 4.53877 2.80699C4.41045 3.11681 4.35512 3.45199 4.37707 3.78662C4.39901 4.12124 4.49764 4.44633 4.66533 4.73674" stroke="var(--stroke-0, #00A82D)" stroke-width="1.45746" stroke-linecap="round" stroke-linejoin="round"/>
<path id="Vector_4" d="M13.115 3.73474C13.5433 3.84488 13.941 4.05105 14.2778 4.33763C14.6147 4.62421 14.8819 4.98369 15.0593 5.38885C15.2367 5.794 15.3195 6.23421 15.3016 6.67612C15.2836 7.11804 15.1654 7.55008 14.9557 7.93951" stroke="var(--stroke-0, #00A82D)" stroke-width="1.45746" stroke-linecap="round" stroke-linejoin="round"/>
<path id="Vector_5" d="M13.1171 13.1171C13.7588 13.1171 14.3825 12.9054 14.8915 12.5147C15.4006 12.1241 15.7665 11.5764 15.9326 10.9567C16.0987 10.3369 16.0556 9.67961 15.8101 9.0868C15.5645 8.49398 15.1303 7.99875 14.5746 7.67789" stroke="var(--stroke-0, #00A82D)" stroke-width="1.45746" stroke-linecap="round" stroke-linejoin="round"/>
<path id="Vector_6" d="M14.5505 12.7404C14.6016 13.1355 14.5711 13.5369 14.461 13.9199C14.3509 14.3028 14.1634 14.659 13.9102 14.9666C13.6569 15.2742 13.3433 15.5267 12.9887 15.7083C12.6341 15.89 12.246 15.997 11.8484 16.0228C11.4508 16.0486 11.0522 15.9926 10.6771 15.8583C10.302 15.724 9.95836 15.5142 9.66751 15.2419C9.37665 14.9696 9.1447 14.6406 8.98599 14.2751C8.82729 13.9097 8.74518 13.5156 8.74476 13.1171C8.74433 13.5156 8.66223 13.9097 8.50352 14.2751C8.34481 14.6406 8.11287 14.9696 7.82201 15.2419C7.53115 15.5142 7.18756 15.724 6.81245 15.8583C6.43734 15.9926 6.03868 16.0486 5.64108 16.0228C5.24349 15.997 4.8554 15.89 4.5008 15.7083C4.14619 15.5267 3.83259 15.2742 3.57936 14.9666C3.32614 14.659 3.13866 14.3028 3.02852 13.9199C2.91837 13.5369 2.8879 13.1355 2.93897 12.7404" stroke="var(--stroke-0, #00A82D)" stroke-width="1.45746" stroke-linecap="round" stroke-linejoin="round"/>
<path id="Vector_7" d="M4.37238 13.1171C3.73073 13.1171 3.10702 12.9054 2.59797 12.5147C2.08892 12.1241 1.72299 11.5764 1.55691 10.9567C1.39084 10.3369 1.43391 9.67961 1.67944 9.0868C1.92498 8.49398 2.35925 7.99875 2.91492 7.67789" stroke="var(--stroke-0, #00A82D)" stroke-width="1.45746" stroke-linecap="round" stroke-linejoin="round"/>
<path id="Vector_8" d="M4.37457 3.73474C3.94622 3.84488 3.54855 4.05105 3.21168 4.33763C2.87481 4.62421 2.60757 4.98369 2.4302 5.38885C2.25283 5.794 2.16998 6.23421 2.18793 6.67612C2.20588 7.11804 2.32415 7.55008 2.53379 7.93951" stroke="var(--stroke-0, #00A82D)" stroke-width="1.45746" stroke-linecap="round" stroke-linejoin="round"/>
</g>
</svg>
