<svg preserveAspectRatio="none" width="100%" height="100%" overflow="visible" style="display: block;" viewBox="0 0 14 14" fill="none" xmlns="http://www.w3.org/2000/svg">
<g id="Icon">
<path id="Vector" d="M6.99464 7.57752C7.31656 7.57752 7.57752 7.31656 7.57752 6.99464C7.57752 6.67272 7.31656 6.41175 6.99464 6.41175C6.67272 6.41175 6.41175 6.67272 6.41175 6.99464C6.41175 7.31656 6.67272 7.57752 6.99464 7.57752Z" stroke="var(--stroke-0, #666666)" stroke-width="1.16577" stroke-linecap="round" stroke-linejoin="round"/>
<path id="Vector_2" d="M6.99464 3.49732C7.31656 3.49732 7.57752 3.23635 7.57752 2.91443C7.57752 2.59251 7.31656 2.33155 6.99464 2.33155C6.67272 2.33155 6.41175 2.59251 6.41175 2.91443C6.41175 3.23635 6.67272 3.49732 6.99464 3.49732Z" stroke="var(--stroke-0, #666666)" stroke-width="1.16577" stroke-linecap="round" stroke-linejoin="round"/>
<path id="Vector_3" d="M6.99464 11.6577C7.31656 11.6577 7.57752 11.3968 7.57752 11.0748C7.57752 10.7529 7.31656 10.492 6.99464 10.492C6.67272 10.492 6.41175 10.7529 6.41175 11.0748C6.41175 11.3968 6.67272 11.6577 6.99464 11.6577Z" stroke="var(--stroke-0, #666666)" stroke-width="1.16577" stroke-linecap="round" stroke-linejoin="round"/>
</g>
</svg>
