<svg preserveAspectRatio="none" width="100%" height="100%" overflow="visible" style="display: block;" viewBox="0 0 21 21" fill="none" xmlns="http://www.w3.org/2000/svg">
<g id="Icon" clip-path="url(#clip0_0_15)">
<path id="Vector" d="M10.4949 15.7423V4.37287" stroke="var(--stroke-0, white)" stroke-width="1.74915" stroke-linecap="round" stroke-linejoin="round"/>
<path id="Vector_2" d="M13.1186 11.3695C12.3619 11.1483 11.6973 10.6878 11.2243 10.0572C10.7513 9.42648 10.4954 8.65951 10.4949 7.87116C10.4944 8.65951 10.2385 9.42648 9.76549 10.0572C9.29248 10.6878 8.62784 11.1483 7.87116 11.3695" stroke="var(--stroke-0, white)" stroke-width="1.74915" stroke-linecap="round" stroke-linejoin="round"/>
<path id="Vector_3" d="M15.3907 5.68474C15.592 5.33621 15.7104 4.94606 15.7367 4.54446C15.763 4.14287 15.6966 3.7406 15.5426 3.36877C15.3886 2.99695 15.1511 2.66553 14.8486 2.40017C14.546 2.13481 14.1864 1.94261 13.7977 1.83844C13.4089 1.73428 13.0014 1.72094 12.6067 1.79946C12.212 1.87798 11.8406 2.04625 11.5213 2.29126C11.2021 2.53626 10.9434 2.85144 10.7654 3.21239C10.5874 3.57335 10.4949 3.97042 10.4949 4.37288C10.4949 3.97042 10.4023 3.57335 10.2243 3.21239C10.0464 2.85144 9.78771 2.53626 9.46842 2.29126C9.14914 2.04625 8.77777 1.87798 8.38304 1.79946C7.98832 1.72094 7.58083 1.73428 7.19208 1.83844C6.80334 1.94261 6.44377 2.13481 6.14119 2.40017C5.83861 2.66553 5.60114 2.99695 5.44713 3.36877C5.29313 3.7406 5.22673 4.14287 5.25306 4.54446C5.2794 4.94606 5.39777 5.33621 5.59902 5.68474" stroke="var(--stroke-0, white)" stroke-width="1.74915" stroke-linecap="round" stroke-linejoin="round"/>
<path id="Vector_4" d="M15.7397 4.48219C16.2538 4.61437 16.731 4.8618 17.1353 5.20573C17.5396 5.54967 17.8603 5.9811 18.0732 6.46734C18.2861 6.95358 18.3855 7.48188 18.364 8.01224C18.3424 8.5426 18.2005 9.0611 17.9489 9.52848" stroke="var(--stroke-0, white)" stroke-width="1.74915" stroke-linecap="round" stroke-linejoin="round"/>
<path id="Vector_5" d="M15.7423 15.7423C16.5124 15.7423 17.2609 15.4882 17.8718 15.0194C18.4828 14.5506 18.9219 13.8933 19.1213 13.1495C19.3206 12.4056 19.2689 11.6168 18.9742 10.9054C18.6795 10.1939 18.1583 9.59958 17.4915 9.21451" stroke="var(--stroke-0, white)" stroke-width="1.74915" stroke-linecap="round" stroke-linejoin="round"/>
<path id="Vector_6" d="M17.4626 15.2902C17.5239 15.7644 17.4873 16.2462 17.3551 16.7057C17.2229 17.1652 16.998 17.5928 16.694 17.962C16.3901 18.3311 16.0138 18.6341 15.5882 18.8521C15.1626 19.0701 14.6969 19.1986 14.2197 19.2295C13.7425 19.2605 13.2641 19.1933 12.8139 19.0321C12.3637 18.8709 11.9514 18.6192 11.6023 18.2924C11.2532 17.9656 10.9749 17.5707 10.7844 17.1321C10.5939 16.6935 10.4954 16.2205 10.4949 15.7423C10.4944 16.2205 10.3958 16.6935 10.2054 17.1321C10.0149 17.5707 9.73653 17.9656 9.38746 18.2924C9.03839 18.6192 8.62603 18.8709 8.17585 19.0321C7.72567 19.1933 7.24722 19.2605 6.77005 19.2295C6.29289 19.1986 5.82713 19.0701 5.40156 18.8521C4.97598 18.6341 4.59962 18.3311 4.29572 17.962C3.99181 17.5928 3.76682 17.1652 3.63463 16.7057C3.50244 16.2462 3.46586 15.7644 3.52716 15.2902" stroke="var(--stroke-0, white)" stroke-width="1.74915" stroke-linecap="round" stroke-linejoin="round"/>
<path id="Vector_7" d="M5.24744 15.7423C4.47738 15.7423 3.72884 15.4882 3.11791 15.0194C2.50699 14.5506 2.06782 13.8933 1.86851 13.1495C1.6692 12.4056 1.72088 11.6168 2.01556 10.9054C2.31023 10.1939 2.83142 9.59958 3.49829 9.21451" stroke="var(--stroke-0, white)" stroke-width="1.74915" stroke-linecap="round" stroke-linejoin="round"/>
<path id="Vector_8" d="M5.25006 4.48219C4.73599 4.61437 4.25874 4.8618 3.85445 5.20573C3.45016 5.54967 3.12943 5.9811 2.91656 6.46734C2.7037 6.95358 2.60427 7.48188 2.62581 8.01224C2.64735 8.5426 2.78929 9.0611 3.04089 9.52848" stroke="var(--stroke-0, white)" stroke-width="1.74915" stroke-linecap="round" stroke-linejoin="round"/>
</g>
<defs>
<clipPath id="clip0_0_15">
<rect width="20.9898" height="20.9898" fill="white"/>
</clipPath>
</defs>
</svg>
